<svg width="113" height="42" viewBox="0 0 113 42" fill="none" xmlns="http://www.w3.org/2000/svg">
<circle cx="20.5423" cy="21.0726" r="16.1673" fill="url(#paint0_linear_4149_11310)"/>
<path fill-rule="evenodd" clip-rule="evenodd" d="M37.0033 11.3137C38.0277 11.3137 38.8582 12.1442 38.8582 13.1686C38.8582 14.1929 38.0277 15.0234 37.0033 15.0234C30.2019 15.0234 22.6705 19.9464 22.6705 29.3562C22.6705 30.3806 21.8401 31.211 20.8157 31.211C20.8022 31.211 20.7886 31.2109 20.7752 31.2106C20.7608 31.2109 20.7464 31.2111 20.7319 31.2111C19.7075 31.2111 18.8771 30.3806 18.8771 29.3562C18.8771 19.9465 11.3457 15.0234 4.54429 15.0234C3.51989 15.0234 2.68945 14.193 2.68945 13.1686C2.68945 12.1442 3.51989 11.3138 4.54429 11.3138C10.7123 11.3138 17.582 14.6437 20.7738 21.1545C23.9656 14.6437 30.8353 11.3137 37.0033 11.3137Z" fill="white"/>
<path d="M53.844 25.2446L53.972 24.1886H46.676L47.092 21.2766H54.388L54.548 20.1566L46.452 20.3806L46.868 17.4366L71.188 16.7326L70.772 19.6446L61.076 19.9646L60.884 21.2766H70.036L69.62 24.1886H60.468L60.308 25.2446H71.38L70.964 28.2526H59.892L59.7 29.6606H68.788L70.196 28.4126L69.588 32.7646H52.788L53.428 28.2526H44.276L44.692 25.2446H53.844ZM66.676 11.1966H73.3L72.916 13.9166H69.844L70.804 15.9646H65.94L65.076 14.1406L64.116 15.9646H58.644L61.428 10.7806L60.724 9.82063H67.412L66.676 11.1966ZM53.908 11.1966H59.924L59.54 13.9166H57.108L58.036 15.9646H53.172L52.34 14.1406L51.348 15.9646H45.876L48.66 10.7806L47.956 9.82063H54.644L53.908 11.1966ZM75.6335 29.9166L76.4335 24.2846H100.561L99.7615 29.9166H101.041L100.721 32.2526H74.0335L74.3535 29.9166H75.6335ZM96.4975 16.2846L96.1775 15.1006L96.0175 16.4446H82.6735L82.8335 15.2606L82.2255 16.2846H76.7535L80.4015 10.8446L79.6655 9.78863H100.209L102.417 16.2846H96.4975ZM100.849 17.4686L99.9855 23.4206H77.3935L78.2575 17.4686H100.849ZM83.5375 14.0766H95.9215L95.6655 12.9886H84.1775L83.5375 14.0766ZM93.8735 21.1166L94.0335 19.9326H83.6335L83.4735 21.1166H93.8735ZM93.5855 26.7806L93.1695 29.9166H94.6415L95.0895 26.7806H93.5855ZM87.1215 29.9166H88.5935L89.0095 26.7806H87.5375L87.1215 29.9166ZM81.0735 29.9166H82.5455L82.9615 26.7806H81.5215L81.0735 29.9166Z" fill="white"/>
<defs>
<linearGradient id="paint0_linear_4149_11310" x1="16.405" y1="3.40152" x2="30.5403" y2="34.3789" gradientUnits="userSpaceOnUse">
<stop stop-color="#FFB3E0"/>
<stop offset="1" stop-color="#CD3EFF"/>
</linearGradient>
</defs>
</svg>
